<svg width="198" height="26" viewBox="0 0 198 26" fill="none" xmlns="http://www.w3.org/2000/svg">
<path d="M20.9492 0.709961V21.3872C20.8421 24.3553 19.3122 25.8929 16.3594 26H4.88477C1.93197 25.8929 0.402018 24.3783 0.294922 21.4561V16.8203H4.88477V21.4102H16.3594V0.709961H20.9492ZM30.1289 0.709961V11.1289H41.6035V0.709961H46.1934V26H41.6035V15.7188H30.1289V26H25.5391V0.709961H30.1289ZM66.8477 21.4102V5.2998H55.373V21.4102H66.8477ZM50.7832 5.27686C50.9056 2.33936 52.4355 0.817057 55.373 0.709961H66.8247C69.7316 0.817057 71.2692 2.33936 71.4375 5.27686V21.4102C71.361 24.3783 69.8311 25.9082 66.8477 26H55.373C52.3743 25.9082 50.8444 24.3783 50.7832 21.4102V5.27686ZM92.0918 14.5254V5.2998H80.6172V14.5254H92.0918ZM80.6172 19.1152V26H76.0273V0.709961H92.0459C94.9987 0.847656 96.5439 2.3929 96.6816 5.3457V14.4795C96.5439 17.3864 95.014 18.9316 92.0918 19.1152L96.7275 26H91.6787L87.043 19.1152H80.6172ZM117.336 14.4336V5.3457H105.861V14.4336H117.336ZM105.861 19.0234V26H101.271V5.3457C101.379 2.3929 102.901 0.862956 105.838 0.755859H117.336C120.289 0.832357 121.819 2.36995 121.926 5.36865V26H117.336V19.0234H105.861ZM131.105 0.709961V11.1289H142.58V0.709961H147.17V26H142.58V15.7188H131.105V26H126.516V0.709961H131.105ZM167.824 14.4336V5.3457H156.35V14.4336H167.824ZM156.35 19.0234V26H151.76V5.3457C151.867 2.3929 153.389 0.862956 156.327 0.755859H167.824C170.777 0.832357 172.307 2.36995 172.414 5.36865V26H167.824V19.0234H156.35ZM177.004 0.709961H197.658V5.2998H189.626V26H185.036V5.2998H177.004V0.709961Z" fill="#055D59"/>
</svg>
