<svg width="66" height="66" viewBox="0 0 66 66" fill="none" xmlns="http://www.w3.org/2000/svg">
<circle cx="33" cy="33" r="33" fill="#D9D9D9"/>
<rect x="23.3004" y="6" width="18.7387" height="5.03267" fill="#055D59"/>
<path d="M47.7677 33.3584C45.0265 29.1182 42.1996 17.9214 41.1289 12.853H24.4247C24.2105 18.2497 20.0523 28.7719 18 33.3584C30.9029 47.3857 30.1814 55.7683 30.9488 61.2293C32.1955 61.4511 34.8571 61.3578 34.8571 61.2293C34.1611 45.5424 47.7142 33.3584 47.7677 33.3584Z" fill="#055D59"/>
<rect x="32.0272" y="33.7332" width="1.71325" height="27.6261" fill="white"/>
<circle cx="32.8609" cy="63.4474" r="1.55263" fill="#055D59"/>
<path d="M26.2343 39C25.6775 39 25.1833 38.7605 24.7517 38.2816C24.3202 37.8164 24.0696 37.0844 24 36.0855L25.5452 35.3466L26.0255 35.634C26.0255 36.1403 26.123 36.5576 26.3179 36.886C26.5267 37.2144 26.7703 37.3786 27.0487 37.3786C27.3689 37.3786 27.703 37.1254 28.051 36.6192C28.3991 36.1129 28.6914 35.2714 28.9281 34.0946C29.1787 32.9042 29.3039 31.3033 29.3039 29.2919C29.3039 28.8814 29.29 28.3341 29.2622 27.6499C29.2483 26.9658 29.2204 26.2474 29.1787 25.4949C29.1508 24.7423 29.109 24.0582 29.0534 23.4424C28.9281 23.4561 28.7958 23.4698 28.6566 23.4835C28.5313 23.4835 28.406 23.4835 28.2807 23.4835C27.7657 23.4835 27.2436 23.4219 26.7146 23.2987L26.4849 22.7651L27.0278 21C27.3898 21.26 27.7935 21.4447 28.239 21.5542C28.6845 21.6499 29.1647 21.6978 29.6798 21.6978C30.2923 21.6978 30.884 21.6363 31.4548 21.5131C32.0394 21.39 32.5267 21.2668 32.9165 21.1437C32.9722 21.1437 33 21.2052 33 21.3284C33 21.4242 32.9722 21.561 32.9165 21.7389C32.8608 21.9031 32.7842 22.0262 32.6868 22.1083C32.464 22.2452 32.2413 22.3751 32.0186 22.4983C31.7958 22.6078 31.5731 22.7104 31.3503 22.8062C31.3225 23.4766 31.2877 24.236 31.2459 25.0844C31.2042 25.919 31.1485 26.8016 31.0789 27.732C31.0093 28.6488 30.9258 29.5587 30.8283 30.4618C30.7448 31.3512 30.6404 32.1859 30.5151 32.9658C30.4037 33.7457 30.2715 34.4094 30.1183 34.9567C29.8817 35.8187 29.5476 36.5507 29.116 37.1528C28.6845 37.7548 28.2181 38.2132 27.7169 38.5279C27.2158 38.8426 26.7216 39 26.2343 39Z" fill="white"/>
<path d="M39.7657 39C40.3225 39 40.8167 38.7605 41.2483 38.2816C41.6798 37.8164 41.9304 37.0844 42 36.0855L40.4548 35.3466L39.9745 35.634C39.9745 36.1403 39.877 36.5576 39.6821 36.886C39.4733 37.2144 39.2297 37.3786 38.9513 37.3786C38.6311 37.3786 38.297 37.1254 37.949 36.6192C37.6009 36.1129 37.3086 35.2714 37.0719 34.0946C36.8213 32.9042 36.6961 31.3033 36.6961 29.2919C36.6961 28.8814 36.71 28.3341 36.7378 27.6499C36.7517 26.9658 36.7796 26.2474 36.8213 25.4949C36.8492 24.7423 36.891 24.0582 36.9466 23.4424C37.0719 23.4561 37.2042 23.4698 37.3434 23.4835C37.4687 23.4835 37.594 23.4835 37.7193 23.4835C38.2343 23.4835 38.7564 23.4219 39.2854 23.2987L39.5151 22.7651L38.9722 21C38.6102 21.26 38.2065 21.4447 37.761 21.5542C37.3155 21.6499 36.8353 21.6978 36.3202 21.6978C35.7077 21.6978 35.116 21.6363 34.5452 21.5131C33.9606 21.39 33.4733 21.2668 33.0835 21.1437C33.0278 21.1437 33 21.2052 33 21.3284C33 21.4242 33.0278 21.561 33.0835 21.7389C33.1392 21.9031 33.2158 22.0262 33.3132 22.1083C33.536 22.2452 33.7587 22.3751 33.9814 22.4983C34.2042 22.6078 34.4269 22.7104 34.6497 22.8062C34.6775 23.4766 34.7123 24.236 34.7541 25.0844C34.7958 25.919 34.8515 26.8016 34.9211 27.732C34.9907 28.6488 35.0742 29.5587 35.1717 30.4618C35.2552 31.3512 35.3596 32.1859 35.4849 32.9658C35.5963 33.7457 35.7285 34.4094 35.8817 34.9567C36.1183 35.8187 36.4524 36.5507 36.884 37.1528C37.3155 37.7548 37.7819 38.2132 38.2831 38.5279C38.7842 38.8426 39.2784 39 39.7657 39Z" fill="white"/>
</svg>
